<svg width="31" height="36" viewBox="0 0 31 36" fill="none" xmlns="http://www.w3.org/2000/svg">
<path d="M15.6264 2.78791e-05C14.3406 -0.00393931 13.0889 0.415592 12.0628 1.19441C11.0368 1.97323 10.293 3.06844 9.9453 4.31241C8.66582 4.04548 7.33768 4.14126 6.10925 4.58906C4.88081 5.03687 3.80047 5.81905 2.98889 6.84824C2.17731 7.87743 1.66647 9.11309 1.51342 10.4172C1.36038 11.7213 1.57116 13.0425 2.12221 14.2331C0.837151 15.5424 0.0829456 17.2853 0.00644553 19.1226C-0.0700545 20.9599 0.536627 22.76 1.70836 24.1725C2.8801 25.585 4.53303 26.5088 6.34531 26.7639C8.15758 27.0191 9.9995 26.5874 11.5124 25.5528C12.7051 24.7375 14.1023 24.2764 15.5438 24.2222C16.9853 24.168 18.4129 24.523 19.6629 25.2464C21.3347 26.2122 23.3104 26.5 25.1863 26.0512C27.0622 25.6024 28.6968 24.4508 29.7561 22.8316C30.8154 21.2124 31.2195 19.2479 30.8859 17.3394C30.5522 15.4309 29.506 13.7224 27.9609 12.5629C28.4538 11.5923 28.6492 10.4967 28.5226 9.41444C28.3959 8.33222 27.9528 7.31202 27.2493 6.48278C26.5458 5.65354 25.6135 5.05248 24.5701 4.75558C23.5268 4.45868 22.4192 4.47926 21.3875 4.81472C21.1339 3.46437 20.42 2.24501 19.3686 1.36631C18.3172 0.487609 16.9939 0.00449044 15.6264 2.78791e-05ZM15.1615 6.48492C15.3014 6.47703 15.4401 6.51551 15.5561 6.59446C15.6722 6.67341 15.7592 6.78846 15.8039 6.92194C16.1203 7.89379 16.2426 8.91887 16.1638 9.93834C16.4666 9.70546 16.8265 9.55935 17.2054 9.51552C17.5842 9.47169 17.9678 9.53178 18.3153 9.68941C18.6629 9.84705 18.9615 10.0963 19.1794 10.4108C19.3973 10.7253 19.5264 11.0932 19.5529 11.4754C19.617 12.4123 19.4841 13.3523 19.1628 14.2341C18.8416 15.116 18.3392 15.9201 17.6884 16.594C17.5031 16.7858 17.2558 16.9049 16.991 16.9298C16.7261 16.9546 16.4612 16.8837 16.2438 16.7297C16.0275 16.5757 15.769 16.493 15.5039 16.493C15.2389 16.493 14.9804 16.5757 14.7641 16.7297C14.5467 16.8837 14.2817 16.9546 14.0169 16.9298C13.752 16.9049 13.5047 16.7858 13.3195 16.594C12.6687 15.9201 12.1663 15.116 11.8451 14.2341C11.5238 13.3523 11.3909 12.4123 11.4549 11.4754C11.4806 11.1006 11.6049 10.7394 11.815 10.4287C12.0252 10.118 12.3137 9.86896 12.651 9.70701C12.9883 9.54506 13.3624 9.47602 13.735 9.50696C14.1076 9.53789 14.4653 9.6677 14.7716 9.88309C14.8055 9.9074 14.8405 9.93003 14.8766 9.9509C14.961 9.06365 14.8623 8.16845 14.5867 7.32128C14.5571 7.22776 14.5493 7.1287 14.5638 7.03168C14.5782 6.93465 14.6146 6.84224 14.6701 6.76152C14.7256 6.6808 14.7987 6.6139 14.8839 6.56596C14.9691 6.51802 15.064 6.4903 15.1615 6.48492Z" fill="#4CA438"/>
<path d="M19.3187 26.5249C19.2193 26.4723 19.121 26.4179 19.0237 26.3616C17.9822 25.7587 16.7928 25.4629 15.5917 25.5078C14.3906 25.5528 13.2264 25.9367 12.2325 26.6158C11.96 26.8019 11.6772 26.9723 11.3854 27.126C11.337 30.1326 10.888 33.1191 10.0503 36.0059H20.6581C19.7643 32.9257 19.3132 29.7333 19.3187 26.5249Z" fill="#4CA438"/>
</svg>
