<?xml version="1.0" encoding="UTF-8"?>
<svg id="Layer_2" data-name="Layer 2" xmlns="http://www.w3.org/2000/svg" viewBox="0 0 100 65.51">
  <g id="Layer_1-2" data-name="Layer 1">
    <path d="M91.64,15.55c2.44-1.14,5.2-2.36,8.36-3.68-2.64-3.58-9.39-3.81-16.6-2.85-9.36,1.25-19.49,4.52-22.4,5.1-5.14,1.03-11.4,3.65-15.24,3.09-1.35-.2-2.16-1.09-2.72-2.36-1.02-2.34-1.17-5.99-2.14-9.14C39.41.83,34.5-.62,30.15.23c-2.79.54-3.93,2.1-8.79,2.57C13.03,1.68,0,1.49,0,1.49c4.77,1.96,16.04,3.6,20.34,4.63,4.3,1.03,5.1,7.86,5.89,14.07.91,7.18,2.11,15.25,7.25,22.27,5.14,7.01,11.28,7.76,16.03,7.65,2.61-.06,8.54,3.89,12.15,6.46,4.13,2.94,12.25,10.66,13.37,8.6,1.12-2.06-1.78-3.93-10.1-15.15-4.07-5.49-5.88-8.91-6.81-11.38-.97-2.58-.99-4.13-1.61-5.89,17.41-3.39,13.27-6.98,35.12-17.2Z"/>
  </g>
</svg>