<?xml version="1.0" encoding="UTF-8"?>
<svg id="Layer_2" data-name="Layer 2" xmlns="http://www.w3.org/2000/svg" viewBox="0 0 23.51 89.36">
  <g id="Layer_1-2" data-name="Layer 1">
    <path d="M20.45,35.64l-.7-4.4c-.07-.42-.43-.73-.85-.73h-4.55c-.47,0-.86-.39-.86-.86v-14.6h-1.07V.86c0-.47-.39-.86-.86-.86h0c-.47,0-.86.39-.86.86v14.2h-1.08v14.6c0,.47-.39.86-.86.86h-3.68c-.4,0-.75.28-.84.67l-.68,3.1c-.02.11-.07.21-.13.3L.15,39.37c-.13.18-.18.41-.14.63l.13.8c.07.41.43.72.85.72h21.56c.43,0,.79-.32.85-.75l.1-.75c.03-.23-.04-.47-.18-.66l-2.69-3.32c-.09-.12-.16-.26-.18-.41Z"/>
    <path d="M3.21,50.21h3.08c.99,0,1.8.82,1.79,1.81-.07,13.31-.27,25.06-.58,35.5-.03,1.01.78,1.84,1.79,1.84h5.1c1.02,0,1.83-.84,1.79-1.86-.4-10.33-.71-22.07-.9-35.47-.01-1,.79-1.83,1.79-1.83h3.52c.9,0,1.66-.67,1.78-1.56l.25-1.87c.14-1.07-.69-2.03-1.78-2.03H2.88c-1.11,0-1.96,1-1.77,2.1l.32,1.87c.15.86.89,1.49,1.77,1.49Z"/>
  </g>
</svg>