<svg xmlns="http://www.w3.org/2000/svg" xmlns:xlink="http://www.w3.org/1999/xlink" version="1.1" x="0px" y="0px" viewBox="0 0 100 125" enable-background="new 0 0 100 100" xml:space="preserve"><g><path d="M74.703,32.355c1.211-1.514,1.816-6.055-1.211-6.963s-6.897,1.061-8.055-2.449c-0.74-2.246-5.146-3.33-5.146-3.33   s2.119-9.082,0-9.688s-6.032,10.655-6.357,11.503c-1.149,3-2.848,6.12-4.822,9.366c1.035,1.137,2.765,2.806,5.081,4.213   c1.015,0.617,5.315,2.465,7.808,3.474c0.709-1.352,1.422-2.378,1.847-2.803C65.058,34.469,73.492,33.869,74.703,32.355z"/><path d="M46.89,34.344c-8.234,12.854-19.157,27.648-17.477,44.907c0.049,0.501,0.115,0.967,0.189,1.415   c-4.219,1.583-9.6-1.307-10.18-0.81c-2.119,1.816,3.213,6.53,6.66,6.357c2.207-0.11,3.804-0.664,4.951-1.322   c2.836,4.646,8.636,3.206,13.818,3.441c4.987,0.227,9.687-0.303,11.503-1.211s-0.303-6.963-1.211-10.596s0-14.229,1.211-13.018   s3.33,18.77,4.844,21.797s3.936,1.514,5.752,1.211s-1.514-4.541-2.422-6.357s-3.633-27.548-4.541-32.392   c-0.354-1.893-0.024-3.964,0.577-5.861c-1.569-0.604-8.585-3.581-10.616-5.029C49.152,36.311,47.933,35.266,46.89,34.344z"/></g><text x="0" y="115" fill="#000000" font-size="5px" font-weight="bold" font-family="'Helvetica Neue', Helvetica, Arial-Unicode, Arial, Sans-serif">Created by celine labaume</text><text x="0" y="120" fill="#000000" font-size="5px" font-weight="bold" font-family="'Helvetica Neue', Helvetica, Arial-Unicode, Arial, Sans-serif">from the Noun Project</text></svg>