<?xml version="1.0" encoding="UTF-8"?>
<svg id="Layer_2" data-name="Layer 2" xmlns="http://www.w3.org/2000/svg" viewBox="0 0 76.32 79.99">
  <defs>
    <style>
      .cls-1 {
        fill: #e09628;
      }
    </style>
  </defs>
  <g id="Layer_1-2" data-name="Layer 1">
    <path class="cls-1" d="M62.9,62.84c-1.05-3.55-3.42-5.68-4.17-6.39-8.97-8.47-12.71-23.5-20.57-23.5s-11.6,15.02-20.57,23.49c-.76.71-3.12,2.84-4.17,6.39-.48,1.61-.66,3.34-.49,5.14.63,6.51,6.2,11.74,12.73,12.01,3.02.12,5.82-.75,8.11-2.33,2.62-1.81,6.15-1.81,8.77,0,2.29,1.57,5.09,2.45,8.11,2.33,6.53-.27,12.09-5.5,12.73-12.01.18-1.79,0-3.53-.48-5.13Z"/>
    <path class="cls-1" d="M14.25,32.23c-.98-5.54-4.91-9.47-8.78-8.79-3.87.68-6.22,5.72-5.25,11.26.98,5.54,4.91,9.47,8.78,8.79,3.88-.69,6.23-5.73,5.25-11.26Z"/>
    <path class="cls-1" d="M24,.02c-3.92.34-6.7,5.16-6.21,10.76.49,5.6,4.06,9.86,7.98,9.52,3.92-.34,6.7-5.16,6.21-10.76C31.49,3.94,27.92-.32,24,.02Z"/>
    <path class="cls-1" d="M44.34,9.54c-.49,5.6,2.29,10.42,6.21,10.76s7.49-3.92,7.98-9.52c.49-5.6-2.29-10.42-6.21-10.76-3.92-.34-7.49,3.92-7.98,9.52Z"/>
    <path class="cls-1" d="M70.85,23.44c-3.87-.68-7.81,3.25-8.78,8.79-.98,5.54,1.37,10.58,5.25,11.26,3.87.68,7.81-3.25,8.78-8.79.97-5.54-1.38-10.58-5.25-11.26Z"/>
  </g>
</svg>