<svg width="43" height="43" viewBox="0 0 43 43" fill="none" xmlns="http://www.w3.org/2000/svg">
<circle cx="21.5" cy="21.5" r="21.5" fill="#FF5F5F"/>
<path d="M23.448 11.235V19.815C23.448 20.725 23.398 21.625 23.298 22.515C23.208 23.405 23.078 24.33 22.908 25.29H20.118C19.948 24.33 19.813 23.405 19.713 22.515C19.623 21.625 19.578 20.725 19.578 19.815V11.235H23.448ZM19.023 30.825C19.023 30.495 19.083 30.185 19.203 29.895C19.333 29.595 19.508 29.34 19.728 29.13C19.948 28.91 20.203 28.74 20.493 28.62C20.793 28.49 21.118 28.425 21.468 28.425C21.808 28.425 22.123 28.49 22.413 28.62C22.713 28.74 22.973 28.91 23.193 29.13C23.413 29.34 23.588 29.595 23.718 29.895C23.848 30.185 23.913 30.495 23.913 30.825C23.913 31.165 23.848 31.48 23.718 31.77C23.588 32.06 23.413 32.315 23.193 32.535C22.973 32.745 22.713 32.91 22.413 33.03C22.123 33.15 21.808 33.21 21.468 33.21C21.118 33.21 20.793 33.15 20.493 33.03C20.203 32.91 19.948 32.745 19.728 32.535C19.508 32.315 19.333 32.06 19.203 31.77C19.083 31.48 19.023 31.165 19.023 30.825Z" fill="white"/>
</svg>
