<?xml version="1.0" encoding="UTF-8"?>
<svg id="Layer_2" xmlns="http://www.w3.org/2000/svg" viewBox="0 0 83.34 62.5">
  <defs>
    <style>
      .cls-1 {
        fill: #0f50d3;
      }
    </style>
  </defs>
  <g id="Layer_1-2" data-name="Layer_1">
    <path class="cls-1" d="M41.67,62.5l3.17-12.5c-13.59-.88-25.71-6.66-29.21-14.25-.38,2-.91,3.84-1.75,5.21-2.75,4.88-8.33,4.88-13.88,4.88,4.59,0,6.25-6.54,6.25-14.59s-1.66-14.58-6.25-14.58c5.54,0,11.12,0,13.88,4.88.84,1.38,1.38,3.21,1.75,5.21,2.71-5.91,10.71-10.71,20.46-12.91L29.17,0c8.33,0,16.67,0,22.21,2.79,4.71,2.33,7.42,6.67,9.84,11.29,12.16,2.91,22.12,9.5,22.12,17.16s-10.42,14.59-22.92,17.34c-3.46,4.58-6.83,8.83-9.71,11.12-3.5,2.79-6.25,2.79-9.04,2.79M62.5,25c-2.3,0-4.16,1.87-4.16,4.17,0,1.11.44,2.16,1.22,2.95s1.84,1.22,2.95,1.22,2.17-.44,2.95-1.22,1.22-1.84,1.22-2.95-.44-2.16-1.22-2.95-1.84-1.22-2.95-1.22Z"/>
  </g>
</svg>