<?xml version="1.0" encoding="UTF-8"?>
<svg id="Layer_2" data-name="Layer 2" xmlns="http://www.w3.org/2000/svg" viewBox="0 0 68.17 79.57">
  <defs>
    <style>
      .cls-1 {
        fill: #4c9442;
      }
    </style>
  </defs>
  <g id="Layer_1-2" data-name="Layer 1">
    <path class="cls-1" d="M61.32,20.78c1.52-.38,3.09-.68,4.7-.92,1.04,1.72,1.38,4.11,1.29,6.57-.09,2.46-.62,5-1.33,7.02-.17-2.96-.7-5.61-1.48-7.76-.82-2.27-1.93-3.98-3.18-4.91h0ZM67.3,75.27c-1.73-.5-5.23-.73-8.7-.65-1.23.03-2.2-.12-2.76-.39-.3-.14-.5-.34-.61-.56-.12-.27-.11-.55.05-.85.19-.33.6-.69,1.27-1.06,1.17-.64,1.88-1.21,2.19-1.7.2-.32.2-.6.02-.85-.24-.33-.74-.63-1.46-.91-2.18-.86-6.17-1.41-11-1.74-.33,1.96-.67,3.65-1.79,4.8-.16.16-.42.17-.59,0-.16-.16-.17-.42,0-.59,1.01-1.04,1.3-2.75,1.63-4.73h0s0-.03,0-.03c.88-5.25,2.05-12.23,16.88-14.95-3.87-.39-8.63-.25-12.85,1.34-3.68,1.39-6.96,3.89-8.84,8.12-.38,3.06-.52,6.53-.52,10.43,0,.23-.19.41-.41.41s-.41-.19-.41-.41c0-3.95.15-7.46.54-10.57,0-.02,0-.03,0-.05.62-4.97,1.84-8.9,4-11.93,3.09-4.32,8.05-6.75,15.89-7.68-18.99-2.13-23.75,6.71-25.33,16.1-.43,2.57-.63,5.19-.82,7.65-.2,2.54-.38,4.89-.79,6.86-.05.22-.27.37-.49.32s-.37-.27-.32-.49c.4-1.91.58-4.25.77-6.76.19-2.47.39-5.11.83-7.72.58-3.46,1.57-6.84,3.48-9.68,0-.02,0-.05,0-.07,2.13-9.62,5.88-16.1,10.86-20.43,4.55-3.96,10.12-6.12,16.38-7.23-2.41-.66-4.67-.97-6.8-.97-6.15,0-11.17,2.59-15.2,6.81-4.06,4.25-7.12,10.16-9.31,16.75-.34,1.03-.66,2.08-.96,3.14-.41-9.31,1.21-21.65,4.68-35.28.55-.15,1.11-.59,1.6-1.24.58-.77,1.11-1.88,1.45-3.12.1-.36.18-.72.23-1.08.16-.99.16-1.9,0-2.6-.2-.86-.63-1.46-1.28-1.64-.04-.01-.09-.02-.14-.03-.76-.12-1.56.37-2.25,1.28-.58.77-1.11,1.88-1.45,3.12-.1.36-.18.72-.23,1.08-.16.99-.16,1.9,0,2.6.14.62.41,1.1.79,1.39-3.93,15.5-5.51,29.37-4.43,39.1,0,.07.03.14.06.2-.65,2.79-1.18,5.64-1.57,8.48,0,.02,0,.03,0,.05-.66,4.77-.96,9.51-.96,13.94,0,.23-.19.41-.41.41s-.41-.19-.41-.41c0-4.46.31-9.24.97-14.04,0-.81-.21-2.21-.64-3.94,1-9.71-.58-23.43-4.46-38.74.38-.29.65-.77.79-1.39.16-.7.16-1.61,0-2.6-.06-.36-.14-.72-.23-1.08-.34-1.25-.87-2.35-1.45-3.12-.68-.91-1.48-1.4-2.25-1.28-.06,0-.11.02-.14.03-.65.18-1.09.77-1.28,1.64-.16.7-.16,1.61,0,2.6.06.36.14.72.23,1.08.34,1.25.87,2.35,1.45,3.12.49.65,1.05,1.09,1.6,1.24,3.43,13.51,5.06,25.75,4.69,35.03-1.28-3.61-3.32-7.77-6.34-11.1-3.21-3.54-7.52-6.15-13.14-6.15-1.45,0-2.98.17-4.61.55,6.63.79,11.17,4.7,14.26,9.86,3.98,6.64,5.54,15.35,6.08,22.05h0c.2,2.41.26,4.55.26,6.25,0,.23-.19.41-.41.41s-.41-.19-.41-.41c0-1.66-.06-3.77-.25-6.12-.78-2.11-1.8-4.59-3-7.02-.98-1.99-2.06-3.95-3.21-5.65-1.64-2.42-3.75-4.83-6.66-6.11-2.51-1.11-5.63-1.39-9.6-.14,10.6,1.07,14,10.44,16.84,18.26.21.58.42,1.16.63,1.72,0,.02.01.03.02.04.66,1.78,1.32,3.43,2.06,4.8.11.2.04.45-.17.56s-.45.04-.56-.17c-.72-1.34-1.36-2.92-2-4.62-6.65.8-12.47,2.42-15.22,4.01-.85.49-1.38.95-1.5,1.35-.09.29.14.59.73.88,1.55.76,5.14,1.27,11.44,1.27,2.72,0,3.63.26,3.63.71s-.66.7-1.43,1c-.8.31-1.78.7-1.8.92-.04.3,1.18.7,5.34,1.22.41.05.78.1,1.2.16,3.34.45,9.23,1.24,17.91,1.24,3.75,0,7.63-.14,11.27-.4,3.79-.27,7.3-.64,10.15-1.09,5.23-.83,8.05-1.55,9.2-2.16.32-.16.45-.25.45-.25-.05-.12-.36-.25-.86-.39h0Z"/>
  </g>
</svg>