<svg width="43" height="43" viewBox="0 0 43 43" fill="none" xmlns="http://www.w3.org/2000/svg">
<circle cx="21.5" cy="21.5" r="21.5" fill="#FFA735"/>
<path d="M15.5173 13.215C15.8773 12.905 16.2623 12.615 16.6723 12.345C17.0923 12.075 17.5423 11.84 18.0223 11.64C18.5123 11.44 19.0373 11.285 19.5973 11.175C20.1673 11.055 20.7773 10.995 21.4273 10.995C22.3273 10.995 23.1423 11.12 23.8723 11.37C24.6023 11.61 25.2273 11.96 25.7473 12.42C26.2673 12.87 26.6673 13.415 26.9473 14.055C27.2373 14.695 27.3823 15.41 27.3823 16.2C27.3823 16.96 27.2723 17.62 27.0523 18.18C26.8423 18.73 26.5723 19.21 26.2423 19.62C25.9223 20.03 25.5673 20.385 25.1773 20.685C24.7873 20.985 24.4173 21.265 24.0673 21.525C23.7173 21.785 23.4123 22.045 23.1523 22.305C22.9023 22.555 22.7473 22.835 22.6873 23.145L22.3123 25.29H19.4773L19.1923 22.86C19.1223 22.38 19.1823 21.965 19.3723 21.615C19.5623 21.255 19.8173 20.93 20.1373 20.64C20.4573 20.34 20.8123 20.055 21.2023 19.785C21.6023 19.505 21.9723 19.21 22.3123 18.9C22.6623 18.58 22.9523 18.225 23.1823 17.835C23.4223 17.435 23.5423 16.965 23.5423 16.425C23.5423 15.765 23.3123 15.24 22.8523 14.85C22.4023 14.46 21.8023 14.265 21.0523 14.265C20.5023 14.265 20.0373 14.325 19.6573 14.445C19.2873 14.565 18.9673 14.7 18.6973 14.85C18.4273 14.99 18.1973 15.12 18.0073 15.24C17.8173 15.36 17.6373 15.42 17.4673 15.42C17.0873 15.42 16.8023 15.255 16.6123 14.925L15.5173 13.215ZM18.3223 30.825C18.3223 30.495 18.3823 30.185 18.5023 29.895C18.6323 29.595 18.8073 29.34 19.0273 29.13C19.2473 28.91 19.5023 28.74 19.7923 28.62C20.0923 28.49 20.4173 28.425 20.7673 28.425C21.1073 28.425 21.4273 28.49 21.7273 28.62C22.0273 28.74 22.2873 28.91 22.5073 29.13C22.7273 29.34 22.8973 29.595 23.0173 29.895C23.1473 30.185 23.2123 30.495 23.2123 30.825C23.2123 31.165 23.1473 31.48 23.0173 31.77C22.8973 32.06 22.7273 32.315 22.5073 32.535C22.2873 32.745 22.0273 32.91 21.7273 33.03C21.4273 33.15 21.1073 33.21 20.7673 33.21C20.4173 33.21 20.0923 33.15 19.7923 33.03C19.5023 32.91 19.2473 32.745 19.0273 32.535C18.8073 32.315 18.6323 32.06 18.5023 31.77C18.3823 31.48 18.3223 31.165 18.3223 30.825Z" fill="white"/>
</svg>
