<?xml version="1.0" encoding="UTF-8"?>
<svg id="Layer_2" data-name="Layer 2" xmlns="http://www.w3.org/2000/svg" viewBox="0 0 77.86 85.93">
  <defs>
    <style>
      .cls-1 {
        fill: #e09628;
      }
    </style>
  </defs>
  <g id="Layer_1-2" data-name="Layer 1">
    <path class="cls-1" d="M37.89,43.92v-15.88h1.28v15.82c0,.36-.27.67-.63.7h-.02c-.35,0-.64-.29-.64-.64h0s0,0,0,0ZM35.74,25.52h5.59c.15,0,.27-.11.28-.26.8-9.21,1.66-19.44,1.66-20.52C43.27,2.12,41.15,0,38.53,0c-2.61,0-4.73,2.12-4.73,4.73,0,1.08.86,11.31,1.66,20.52.01.15.13.26.28.26h0ZM76.71,79.65c-.9-.84-1.91-1.55-3.01-2.1-.36-.18-.62-.53-.68-.93-1.09-6.87-7.54-11.55-14.4-10.46-.58.09-1.16.23-1.72.4-.58.18-1.2-.08-1.48-.62-3.78-7.24-12.7-10.04-19.94-6.27-1.26.66-2.42,1.5-3.44,2.49-.31.3-.75.42-1.17.32-8.89-2.19-17.88,3.24-20.07,12.14-.05.21-.1.42-.14.63-.12.59-.66,1.02-1.26,1h-.13c-.07,0-.13,0-.2,0-2.66,0-5.25.83-7.39,2.4-1.8,1.3-2.2,3.82-.9,5.62.76,1.04,1.97,1.66,3.25,1.66h70.21c2,0,3.63-1.63,3.63-3.63,0-1-.42-1.96-1.15-2.65h0ZM27.39,59.49c1.14.03,2.28.16,3.39.39,5.38-4.81,13.19-5.78,19.59-2.42,1.49-4.52,2.91-9.74,4.2-15.52.74-3.34-1.36-6.64-4.7-7.38-.44-.1-.89-.15-1.34-.15h-6.84v9.44c.01,1.73-1.36,3.16-3.09,3.22h-.06c-1.74,0-3.15-1.41-3.15-3.15v-9.5h-6.83c-3.42,0-6.19,2.77-6.19,6.18,0,.45.05.9.15,1.35,1.29,5.94,2.93,11.8,4.89,17.55Z"/>
  </g>
</svg>