<?xml version="1.0" encoding="UTF-8"?>
<svg id="Layer_2" data-name="Layer 2" xmlns="http://www.w3.org/2000/svg" viewBox="0 0 87.07 100">
  <defs>
    <style>
      .cls-1 {
        fill: #010101;
      }
    </style>
  </defs>
  <g id="Layer_1-2" data-name="Layer 1">
    <path class="cls-1" d="M84.13,27.31c-1.19,0-2.26.72-2.71,1.82-.89-6.4-1.73-12.23-1.89-13.66-.57-4.75-3.42-7.63-7.55-9.55-6.45-2.99-13.36-4.21-20.33-5.09-3.07-.39-6.12-.56-9.26-.83h-.44c-5.71.87-11.42,1.53-17.11,2.7-3.51.83-6.94,1.97-10.25,3.42-4.45,1.88-6.79,5.39-7.39,10.17-.39,3.1-.95,7.74-1.52,12.53-.56-1.52-2.24-2.3-3.76-1.74-1.15.42-1.91,1.51-1.92,2.74v9.91c0,1.62,1.31,2.93,2.93,2.93.41,0,.82-.09,1.2-.26-.33,3.05-.55,5.24-.55,5.77v30.23c-.31.44-.47.96-.47,1.5v4.56c0,1.47,1.19,2.65,2.66,2.66h4.76v7.66c0,2.88,2.34,5.21,5.22,5.22h8.3c2.88-.01,5.2-2.34,5.21-5.22v-7.66h28.54v7.66c0,2.88,2.33,5.21,5.21,5.22h8.3c2.88,0,5.21-2.34,5.22-5.22v-7.66h4.77c1.47,0,2.65-1.19,2.66-2.66v-4.56c0-.56-.18-1.11-.51-1.57.06-8.85.11-23.73-.18-32.11,0-.93-.11-2.07-.22-3.35.35.14.72.21,1.09.21,1.62,0,2.93-1.31,2.93-2.93h0v-9.91c0-1.62-1.31-2.93-2.93-2.93,0,0,0,0-.01,0ZM29.53,10.67h28c1.97,0,3.57,1.6,3.57,3.57s-1.6,3.57-3.57,3.57h-28c-1.97,0-3.57-1.6-3.57-3.57,0-1.97,1.6-3.57,3.57-3.57ZM15.9,72.54c-2.98-.06-5.35-2.53-5.29-5.51,0-.05,0-.11,0-.16.1-2.94,2.48-5.28,5.42-5.33,3.04.08,5.46,2.54,5.49,5.58-.08,3.04-2.59,5.46-5.63,5.42ZM18.37,55c-3.15,0-5.7-2.54-5.71-5.69,0,0,0-.01,0-.02v-20.03c0-3.15,2.56-5.71,5.71-5.71h50.32c3.15,0,5.71,2.56,5.71,5.71v20.07c-.02,3.14-2.57,5.68-5.71,5.67H18.37ZM70.67,72.5c-2.95-.13-5.24-2.61-5.14-5.56-.01-3,2.41-5.44,5.41-5.45,3-.01,5.44,2.41,5.45,5.41,0,.12,0,.23,0,.35-.04,2.95-2.47,5.3-5.42,5.26-.1,0-.2,0-.29-.01Z"/>
  </g>
</svg>