<?xml version="1.0" encoding="UTF-8"?>
<svg id="Layer_2" data-name="Layer 2" xmlns="http://www.w3.org/2000/svg" viewBox="0 0 89.34 71.47">
  <defs>
    <style>
      .cls-1 {
        fill: none;
      }

      .cls-2 {
        fill: #010101;
      }
    </style>
  </defs>
  <g id="Layer_1-2" data-name="Layer 1">
    <g>
      <path class="cls-1" d="M44.67,63.46c12.7,0,22.99-10.29,22.99-22.99s-10.29-22.99-22.99-22.99-22.99,10.29-22.99,22.99,10.29,22.99,22.99,22.99ZM44.67,29.09c6.28,0,11.38,5.09,11.38,11.38s-5.09,11.38-11.38,11.38-11.38-5.09-11.38-11.38,5.09-11.38,11.38-11.38Z"/>
      <path class="cls-1" d="M77.28,29.58c2.28,0,4.13-1.85,4.13-4.13s-1.85-4.12-4.13-4.12-4.13,1.85-4.13,4.12,1.85,4.13,4.13,4.13Z"/>
      <path class="cls-2" d="M8.93,71.47h71.47c4.91,0,8.93-4.02,8.93-8.93V22.34c0-4.91-4.02-8.93-8.93-8.93h-10.72c-1.47,0-3.06-1.14-3.53-2.54l-2.77-8.32c-.47-1.4-2.05-2.54-3.53-2.54h-30.38c-1.47,0-3.06,1.14-3.52,2.54l-2.77,8.32c-.47,1.4-2.05,2.54-3.52,2.54h-10.72C4.02,13.4,0,17.43,0,22.34v40.2c0,4.91,4.02,8.93,8.93,8.93ZM77.28,21.33c2.28,0,4.13,1.85,4.13,4.12s-1.85,4.13-4.13,4.13-4.13-1.85-4.13-4.13,1.85-4.12,4.13-4.12ZM44.67,17.48c12.7,0,22.99,10.29,22.99,22.99s-10.29,22.99-22.99,22.99-22.99-10.29-22.99-22.99,10.29-22.99,22.99-22.99Z"/>
      <circle class="cls-2" cx="44.67" cy="40.47" r="11.38"/>
    </g>
  </g>
</svg>