<?xml version="1.0" encoding="UTF-8"?>
<svg id="Layer_2" xmlns="http://www.w3.org/2000/svg" viewBox="0 0 45.76 45.76">
  <defs>
    <style>
      .cls-1 {
        fill: #57ce0b;
      }
    </style>
  </defs>
  <g id="Layer_1-2" data-name="Layer_1">
    <path class="cls-1" d="M30.36,1.26C24.37-.81,18.11-.25,12.84,2.33l3.02-.61,1.71.71,2.94,1.48,3.7,1.4,2.29,1.5,5.07-1.12,2.54,1.43.34,2.67-.24,1.87,2.3,4.04,3.01-.25,3.44.96.34,2.67-2.17,1.66-.36,1.61,1.41,1,2.17.73.21,2.82-2.9,1.62-.98-3.43-1.52-.38-2.26,2.38-2.07,2.01,2.23,5.77-1.25,3.88-1.8-.73.02-2.62-1.03-2.84-5.21-2.74-3.43,2.82-.9,3.74,2.17,3.63,3.46-1.66,2.21.93-2.84,5.44-4.17.77-7.76-4.46-.26-2.97-.07-4.12-1.45.83.72-5.58-1.65-3.5,1.89-5.1,2.78-3.35-.38-5.44-1.05-3.12-4.84-1.82-2.72-2.51C5.81,6.99,2.86,10.77,1.26,15.4c-4.13,11.94,2.2,24.96,14.14,29.09,11.94,4.13,24.96-2.2,29.09-14.14,4.13-11.94-2.2-24.96-14.14-29.09ZM34.45,5.89l-.38-.95-.19-.77,1.32.16.55-.14.44.89.73,1.12-.94.12-1.53-.42ZM40.17,13.45l-2.3-1.83-1.87-1.71.28-1.35,1.25-.28,1.04,1.23.3,1.4,1.66,1.49-.36,1.03ZM9.92,20.23l-1.15-1.06-1.14-.39-1.16-.19-.35-.77s.45-.63,1.08-.65c.62-.02,1.47.66,1.47.66l1.64,1.27-.39,1.14Z"/>
  </g>
</svg>