<?xml version="1.0" encoding="UTF-8"?>
<svg id="Layer_2" xmlns="http://www.w3.org/2000/svg" xmlns:xlink="http://www.w3.org/1999/xlink" viewBox="0 0 11.58 18.21">
  <defs>
    <style>
      .cls-1 {
        fill: #e29f17;
      }

      .cls-2 {
        fill: none;
      }

      .cls-3 {
        clip-path: url(#clippath);
      }
    </style>
    <clipPath id="clippath">
      <rect class="cls-2" width="11.58" height="18.21"/>
    </clipPath>
  </defs>
  <g id="Layer_1-2" data-name="Layer_1">
    <g class="cls-3">
      <g>
        <g>
          <path class="cls-1" d="M5.83,11.54c.13-.2.3-.41.5-.62v-1.1c-.07-.06-.15-.11-.22-.18-.1-.1-.19-.21-.28-.32-.09.11-.18.22-.28.32-.07.07-.15.12-.22.18v1.09c.2.22.37.42.5.62Z"/>
          <path class="cls-1" d="M5.83,14.06c-.09.11-.18.22-.28.32-.07.07-.15.12-.22.18v2.6h1v-2.6c-.07-.06-.15-.11-.22-.18-.1-.1-.19-.21-.28-.32Z"/>
          <path class="cls-1" d="M5.83,5.42c1.5,0,1.5-1.29,1.5-2,0-1.43-1.5-3-1.5-3,0,0-1.5,1.57-1.5,3,0,.71,0,2,1.5,2Z"/>
          <path class="cls-1" d="M4.85,8.93c1.05-1.05.15-1.96-.35-2.46-1-1-3.16-1.05-3.16-1.05,0,0,.05,2.16,1.05,3.16.5.5,1.4,1.4,2.46.35Z"/>
          <path class="cls-1" d="M6.82,8.93c1.05,1.05,1.96.15,2.46-.35,1-1,1.05-3.16,1.05-3.16,0,0-2.16.05-3.16,1.05-.5.5-1.4,1.4-.35,2.46Z"/>
          <path class="cls-1" d="M4.85,13.93c1.05-1.05.15-1.96-.35-2.46-1-1-3.16-1.05-3.16-1.05,0,0,.05,2.16,1.05,3.16.5.5,1.4,1.4,2.46.35Z"/>
          <path class="cls-1" d="M6.82,13.93c1.05,1.05,1.96.15,2.46-.35,1-1,1.05-3.16,1.05-3.16,0,0-2.16.05-3.16,1.05-.5.5-1.4,1.4-.35,2.46Z"/>
        </g>
        <rect class="cls-1" x="-8.67" y="17.17" width="29" height="1"/>
      </g>
    </g>
  </g>
</svg>