<?xml version="1.0" encoding="UTF-8"?>
<svg id="Layer_2" data-name="Layer 2" xmlns="http://www.w3.org/2000/svg" viewBox="0 0 99.97 66.88">
  <defs>
    <style>
      .cls-1 {
        fill: #304fa2;
      }
    </style>
  </defs>
  <g id="Layer_1-2" data-name="Layer 1">
    <path class="cls-1" d="M98.56,23.83c-3.64,3.75-18,7.46-28.34,10v.06c-3.56,7.66-7.13,15.31-10.7,22.96-1.16,2.48-2.29,5-3.5,7.43-1.13,1.95-3.39,2.96-5.59,2.48-2.07-.53-3.45-2.47-3.28-4.6.12-7.33.22-14.67.4-22,.01-.12.01-.23,0-.35-10.79,2.92-24.24,6.54-29.79,7.93-1.42.41-2.93.36-4.32-.13-1.84-.73-2.69-2.2-3.9-4-2.92-4.45-6-8.81-8.79-13.33-.63-.8-.88-1.84-.69-2.84.12-.38.33-.72.62-1,1.28-1.11,3.15-1.2,4.52-.2,3.2,2.36,6.42,4.7,9.61,7.08.42.34.98.45,1.49.27,7.95-2.1,15.91-4.22,23.88-6.37.58-.15.9-.28.85-.66-.04-.23-.13-.45-.26-.64-3.74-6.32-7.45-12.65-11.12-19-1.19-1.77-.94-4.14.6-5.62,1.7-1.49,4.15-1.72,6.1-.58,2.25,1.56,4.46,3.18,6.69,4.78,6.85,4.92,13.7,9.85,20.54,14.79l.12.07c.15.11.33.18.51.22.29.06.6.03.88-.06.66-.21,10.66-3.36,16.82-4,2-.16,4.01-.13,6,.08,2.07.06,4.14.34,6.15.84,2.32.64,5.5,1.53,5.87,3.4.25,1.33-.97,2.6-1.37,2.99Z"/>
  </g>
</svg>