<?xml version="1.0" encoding="UTF-8"?>
<svg id="Layer_2" data-name="Layer 2" xmlns="http://www.w3.org/2000/svg" viewBox="0 0 87.5 81.1">
  <defs>
    <style>
      .cls-1 {
        fill: #010101;
      }
    </style>
  </defs>
  <g id="Layer_1-2" data-name="Layer 1">
    <path class="cls-1" d="M45.95,27.9c.03-.06.06-.14.11-.2.14-.3.3-.59.47-.86-2.39,1.11-4.42,2.81-5.86,4.95-.36,3.19-.59,6.77-.64,10.75h2.62c.2-6.84,1.69-11.55,3.3-14.64h0Z"/>
    <path class="cls-1" d="M37.58,31.26v-.03c.02-.09.02-.19.03-.27v-.02c1-8.55,2.91-14.47,4.7-18.42-10.58,9.67-11.58,25.2-11.62,30.02h6.22c.05-4.19.28-7.94.67-11.28h0Z"/>
    <path class="cls-1" d="M20.77,31.6c-1.78-2.69-4.3-4.86-7.36-6.42,1.86,3.38,3.75,8.88,3.95,17.36h4.17c-.05-4.11-.33-7.73-.75-10.92l-.02-.02Z"/>
    <path class="cls-1" d="M55.56,71.88h-.02l-4.53,2.08-.09,3.28c0,.08.06.14.14.14l8.34.17,1.92-3.86-.09-.2-5.67-1.61Z"/>
    <path class="cls-1" d="M80.25,66.29l-6.11,3.09c-.22.11-.45.17-.7.17h-.12l-7.98-.64c-.86-.08-1.5-.83-1.44-1.69.08-.86.81-1.52,1.69-1.44l7.55.61,4.81-2.45-2.38-3.67-10.36-.91-1.81.8c-2.97,1.31-5.34,3.83-6.5,6.89l-.27.69.16,1.25,5.3,1.48c.94.27,1.69.92,2.09,1.8.38.83.39,1.77.03,2.59,4.52.66,9.09.64,13.41-.02,3.16-.48,5.8-2.62,6.89-5.59l.33-.89-2.88-1.31-1.7-.77Z"/>
    <path class="cls-1" d="M22.14,22.51c.09.31.17.62.25.94,0,.03.02.05.02.08.16.55.28,1.11.41,1.7.02.06.03.14.05.2.16.7.3,1.42.44,2.19.19,1,.36,2.05.5,3.14.08.44.12.88.17,1.31.06.44.11.89.16,1.36.08.7.14,1.42.2,2.16.06.72.11,1.44.16,2.19s.08,1.53.11,2.33.05,1.61.06,2.44h2.91c0-2.7.27-8.36,2.09-14.66v-.02c-.33-.83-.69-1.61-1.08-2.39-.02-.03-.03-.05-.05-.08-2.3-4.59-5.48-8.34-9.53-11.2.14.28.28.56.42.86s.28.61.42.92c.16.33.3.66.44,1s.28.7.42,1.08c.11.28.22.58.33.89.16.47.33.95.48,1.45.12.39.25.8.38,1.2.08.3.17.59.25.91h0Z"/>
    <path class="cls-1" d="M31.52,22.6c.02-5.36.77-8.64,1.23-10.16,1.95-.06,3.72-1.38,4.31-3.34l.91-3.09c.36-1.2.22-2.47-.38-3.56s-1.58-1.89-2.78-2.25c-2.48-.73-5.08.69-5.81,3.16l-.91,3.11c-.12.44-.19.89-.19,1.33,0,1.47.7,2.86,1.86,3.72-.44,1.42-1.03,3.97-1.27,7.8.97,1.34,1.83,2.77,2.61,4.28.12-.33.27-.66.41-.98h0Z"/>
    <path class="cls-1" d="M66.17,29.41c6.64,1.59,12.28,3.89,16.45,6.66l3.12-.95c.11-.03.19-.12.22-.22l1.33-4.91c.03-.11,0-.22-.06-.3l-.88-1.12c-.83.97-2.02,1.61-3.36,1.73l-5.14.47c-.84.08-1.61-.56-1.69-1.42s.55-1.61,1.41-1.69l5.12-.48c.75-.06,1.38-.53,1.64-1.22l.25-.59c.02-.08.05-.16.08-.22.23-.62.16-1.31-.23-1.84l-1.75-2.47c-.33-.47-.83-.77-1.39-.81l-10.69-1.17c-.42-.05-.84.05-1.2.27l-3.55,2.08c-.72.42-1.09,1.25-.92,2.06v.02l1.24,6.14Z"/>
    <path class="cls-1" d="M56.97,26.47l-.69,1.17c2.27.28,4.44.62,6.55,1.03l-.73-3.67-1.88-.19c-1.3-.14-2.59.52-3.25,1.66h0Z"/>
    <path class="cls-1" d="M53.73,30.52c-.14,0-.27-.02-.41-.05-1.64-.14-3.3-.27-5-.33-1.23,2.7-2.36,6.69-2.53,12.39h2.64c.86,0,1.56.69,1.56,1.56s-.7,1.56-1.56,1.56H11.52c-.86,0-1.56-.7-1.56-1.56s.7-1.56,1.56-1.56h2.72c-.08-2.81-.34-5.27-.75-7.38C5,38.52,0,43.24,0,47.93c0,4.14,3.67,7.39,6.75,9.41,1.81,1.19,2.97,3.11,3.16,5.28.19,2.09-.58,4.12-2.11,5.55-1.23,1.14-1.86,2.31-1.86,3.45,0,4.48,9.91,9.48,24.14,9.48,6.78,0,13.16-1.16,17.78-3.2-.03-.22-.06-.44-.06-.66v-3.16c0-1.27.75-2.44,1.89-2.97l3.98-1.86-.19-1.52c-.03-.25,0-.5.08-.73l.39-1.05c1.45-3.84,4.44-7,8.19-8.66l2.17-.95c.23-.11.5-.16.77-.12l10.62.92,1.31-1.89c.88-1.25,2.31-2,3.84-2h3.7c.27,0,.53.02.78.08,1.42-1.77,2.16-3.58,2.16-5.41,0-8.19-14.66-15.5-33.77-17.41h0ZM43.11,64.37c-1.36,1.36-3.17,2.11-5.09,2.11-1.44,0-2.81-.42-3.98-1.2h-.02c-1.17.78-2.55,1.2-4,1.2-1.92,0-3.73-.75-5.09-2.11-.61-.61-.61-1.59,0-2.2s1.59-.61,2.2,0c1.55,1.53,4.25,1.53,5.78,0,.62-.61,1.61-.61,2.22,0,1.55,1.53,4.23,1.53,5.78,0,.61-.61,1.59-.61,2.2,0s.61,1.59,0,2.2h0ZM47.47,56.71c-1.41,1.41-3.27,2.11-5.11,2.11-1.39,0-2.78-.41-3.98-1.2-1.2.8-2.61,1.2-4,1.2s-2.78-.41-4-1.2c-1.22.8-2.61,1.2-4,1.2-1.84,0-3.69-.7-5.09-2.11-.61-.61-.61-1.59,0-2.2s1.59-.61,2.2,0c1.59,1.59,4.19,1.58,5.78,0,.61-.61,1.61-.61,2.22,0,1.59,1.59,4.19,1.58,5.78,0,.61-.61,1.59-.61,2.2,0,1.59,1.59,4.19,1.58,5.78,0,.61-.61,1.61-.61,2.22,0s.61,1.59,0,2.2h0ZM56.08,45.66h-1.05c-.86,0-1.56-.7-1.56-1.56s.7-1.56,1.56-1.56h1.05c.86,0,1.56.69,1.56,1.56s-.7,1.56-1.56,1.56Z"/>
    <path class="cls-1" d="M85.83,57.01c-.3-.39-.77-.62-1.27-.62h-3.7c-.52,0-.98.25-1.28.67l-1.22,1.77,2.91,4.48,1.47.67,2.98-1.48c.38-.19.66-.52.78-.92l.58-1.75c.16-.48.08-1-.22-1.41l-1.03-1.41Z"/>
  </g>
</svg>