<?xml version="1.0" encoding="UTF-8"?>
<svg id="Layer_2" data-name="Layer 2" xmlns="http://www.w3.org/2000/svg" viewBox="0 0 28.18 33.81">
  <g id="Layer_1-2" data-name="Layer 1">
    <g>
      <path d="M20.43,5.26c-.72-3.02-3.47-5.26-6.69-5.26-4.01,0-7.08,3.35-6.89,7.17-2.89.2-4.87,3.06-3.94,5.9-4.9,2.12-3.26,9.96,2.25,9.71,1.41,1.73,4.99,1.83,5.77,1.83,1.18,0,.63.06,7.23-1.18,1.07.84,2.31,1.28,3.6,1.28,4.36,0,7.82-4.91,5.3-9.06,3.07-4.65-.57-11.15-6.63-10.39Z"/>
      <path d="M17.71,25.55l-3.87.72c-.56.16-1.15.24-1.7.29v2.25c0,1.65-.65,2.74-.97,3.26-.08.14-.14.24-.17.32-.15.3-.13.67.06.96.18.29.5.46.84.46h6.96c.55,0,1-.44,1-1,0-.26-.11-.51-.28-.69-.64-1-.98-2.14-.98-3.31v-2.79c-.3-.13-.6-.29-.89-.47Z"/>
    </g>
  </g>
</svg>