<?xml version="1.0" encoding="UTF-8"?>
<svg id="Layer_2" xmlns="http://www.w3.org/2000/svg" viewBox="0 0 204.03 49.11">
  <defs>
    <style>
      .cls-1 {
        fill: #fff;
      }
    </style>
  </defs>
  <g id="Layer_1-2" data-name="Layer_1">
    <g>
      <g>
        <g>
          <path class="cls-1" d="M43.62,25.55c-.38-.22-.73-.47-1.06-.75-.43-.37-1.01-.49-1.54-.3h-.02c-.46.17-.82.54-.96,1.01-.56,1.87-1.46,3.62-1.98,4.55-.06.13-.12.25-.2.37-.76,1.22-2.36,3.59-4.56,5.8l-.04.04c-.07.07-1.7,1.61-3.91,2.94-2.21,1.33-4.74,2.03-7.33,2.03h-.02s-.1,0-.15,0c-.34,0-.41.49-.08.58.48.12.97.23,1.47.32,1.3.24,2.6.36,3.9.36,4.24,0,8.37-1.27,11.93-3.73.58-.4,1.14-.83,1.68-1.28v3.43c0,.86.69,1.55,1.55,1.55h4.38c.86,0,1.55-.69,1.55-1.55v-13.34c0-.64-.52-1.16-1.16-1.14-1.2.02-2.39-.28-3.47-.9Z"/>
          <path class="cls-1" d="M20.2,21.99s0,0,0,0c-2.4.65-3.88,3.01-3.49,5.41-.03-.02-.06-.03-.08-.04.73,1.06,3.89,4.88,9.57,1.44-.16.04-.32.07-.49.1.38-.71.58-1.5.57-2.33l3.43-.93,6.41-1.73s0,0,0,0c.05-.01.1-.03.14-.05l3.05-.83c1.27-.34,2.35-.8,3.27-1.33.41.92,1.1,1.68,1.99,2.19,1.11.64,2.41.81,3.65.47,0,0,0,0,0,0,1.24-.34,2.27-1.13,2.91-2.25.73-1.27.85-2.78.3-4.18-.31-.79-.83-1.49-1.51-2.02-.66-.51-1.41-.83-2.2-.96.47-1.8.38-3.18.37-3.25,0-.08-.02-.15-.04-.22-.42-1.55-1.93-2.51-3.51-2.23l-12.58,2.19-1.08-2.4c-.25-.54-.85-.82-1.42-.65l-1.96.59c-.61.18-1,.8-.85,1.41.16.68.84,1.07,1.5.87l1.01-.3,4.59,10.15c-2.06.45-4.22.16-6.42-.85-1.62-.75-2.73-1.67-2.95-1.86l-1.39-1.59c.11-.07.21-.13.31-.19.12-.07.27-.17.35-.2.62-.12,1.04-.71.94-1.34-.1-.65-.7-1.09-1.35-1-.46.07-.83.3-1.19.53-.3.19-.61.38-.98.49,0,0-.01,0-.02,0-.49.13-1.36.04-1.8-.05-.64-.14-1.27.27-1.41.91-.14.64.27,1.27.91,1.41.12.03.87.18,1.73.17l1.17,1.33-1.19,3.05c-.09.02-.18.04-.27.06ZM44.59,20.24c1.04-.95,1.77-1.99,2.27-2.96,0,0,0,0,0,0,.46-.02.92.09,1.33.32.71.41,1.16,1.13,1.22,1.97.02.3-.02.61-.12.9-.27.8-.9,1.38-1.68,1.6h0c-.39.11-.81.13-1.2.02-.94-.24-1.62-.95-1.82-1.85,0,0,0,0,0,0ZM23.48,20.72c1.01.76,2.97,2.03,5.49,2.64-.04.01-.07.03-.11.05l-3.22.87c-.6-1.06-1.57-1.84-2.69-2.21l.52-1.35ZM23.32,25.04c1.2,1.52.41,3.52-1.22,3.96,0,0,0,0,0,0-.23.06-.46.09-.69.08-.22-.03-.44-.06-.66-.11-.78-.24-1.42-.86-1.64-1.71-.35-1.31.48-2.64,1.79-3,.89-.24,1.86.05,2.43.77Z"/>
          <g>
            <path class="cls-1" d="M16.7,27.4l-.05-.5c0,.17.03.34.05.5Z"/>
            <path class="cls-1" d="M34.29,26.88s-.07,0-.11,0c-2.45.17-3.94.66-5.4,1.13-.99.32-1.87.66-3.08.89-4.44,1.56-9-1.5-9-1.5-.07-.04-.11-.06-.12-.07,0,0-.01,0-.02-.01-.09-.05-8.91-5-13.27-7.56-.65-.38-1.43-.39-2.09-.03-.68.37-1.1,1.05-1.13,1.81,0,.19-.02.38-.03.59-.11,1.66-.27,4.1,2.78,5.79-.02.44.04.97.27,1.55.51,1.32,1.69,2.41,3.51,3.25.6.96,2.38,3.4,5.4,4.54.2.08.53.17.74.23.08.02.15.05.23.08.58.22.88.31,1.65.56,1.81.59,3.69,1.2,7.39,1.2h.02c2.23,0,4.43-.61,6.34-1.76,2.06-1.24,3.58-2.69,3.58-2.69,2.07-2.08,3.58-4.32,4.3-5.47.06-.09.1-.19.12-.29.13-.54.32-2.19-2.08-2.25ZM27.39,35.6c-1.04.69-2.25,1.09-3.49,1.18-.57.04-1.19.07-1.89.07-3.3,0-4.91-.52-6.62-1.08-.62-.2-1.29-.46-1.99-.64-.05-.03-.11-.05-.17-.07-1.93-.61-3.27-1.99-4.01-2.93.99.29,2.17.59,3.22.76.13.02.17-.16.05-.21-1.22-.42-1.97-.56-4.35-1.98-.02-.01-.04-.03-.07-.04,0,0-.01,0-.02-.01h0s-.07-.04-.11-.05c-2.79-1.18-2.7-2.46-2.61-2.82.99.39,3.55,1.33,5.51,1.64.12.02.17-.15.06-.2-1.15-.48-3.25-1.39-5.92-2.99-.09-.06-.18-.11-.28-.15-2.36-.99-2.29-2.04-2.17-3.77,0-.03,0-.07,0-.1,4.45,2.6,12.48,7.11,12.8,7.29.27.16,3.7,2.12,6.73,2.12.1,0,.68.07.77.05,3.57-.02,4.93-.7,6.71-1.28,1.13-.37,2.22-.72,3.8-.92-1.27,1.81-3.4,4.45-5.96,6.14Z"/>
          </g>
        </g>
        <g>
          <path class="cls-1" d="M68.97,15.43c-1.44,0-2.69-.33-3.77-.97-1.08-.65-1.93-1.55-2.55-2.71-.62-1.16-.93-2.51-.92-4.04s.31-2.86.93-4.02c.62-1.16,1.47-2.06,2.55-2.72C66.29.33,67.55,0,68.98,0s2.72.33,3.83.98c1.1.65,1.95,1.56,2.56,2.72.6,1.16.9,2.5.9,4.02s-.3,2.88-.91,4.04c-.61,1.16-1.46,2.06-2.56,2.71-1.1.65-2.38.97-3.83.97ZM68.97,13.54c1.04,0,1.94-.23,2.71-.7.77-.47,1.36-1.14,1.78-2,.42-.87.63-1.9.63-3.11s-.21-2.25-.63-3.11c-.42-.87-1.01-1.53-1.78-1.99-.77-.46-1.67-.69-2.71-.69s-1.89.23-2.65.69c-.76.46-1.35,1.13-1.78,1.99-.43.87-.64,1.9-.64,3.11s.21,2.25.64,3.11c.43.87,1.02,1.54,1.78,2.01.76.47,1.64.7,2.65.71Z"/>
          <path class="cls-1" d="M81.87,15.44c-.82,0-1.55-.17-2.17-.51-.63-.34-1.1-.85-1.43-1.54-.33-.68-.49-1.54-.49-2.58v-6.37s2.14,0,2.14,0v6.14c0,1.02.21,1.79.64,2.29.43.5,1.07.76,1.91.76.55,0,1.05-.13,1.49-.4.44-.27.79-.66,1.06-1.16.26-.5.4-1.13.4-1.87v-5.76s2.14,0,2.14,0v10.74s-1.93,0-1.93,0l-.13-1.83c-.33.65-.81,1.16-1.44,1.53-.63.37-1.36.55-2.19.55Z"/>
          <path class="cls-1" d="M89.25,15.19V4.45s1.93,0,1.93,0l.17,2.03c.26-.48.57-.89.95-1.23.38-.33.83-.59,1.36-.78.53-.18,1.13-.28,1.78-.28v2.24s-.77,0-.77,0c-.44,0-.86.06-1.26.17-.4.11-.75.3-1.04.55-.3.26-.54.6-.72,1.03-.18.43.06.98.06,1.65l-.33,5.35h-2.13Z"/>
          <path class="cls-1" d="M71.76,42.7c-2,0-3.76-.45-5.26-1.35-1.51-.9-2.68-2.16-3.52-3.78-.84-1.62-1.26-3.51-1.26-5.68s.44-4.12,1.31-5.8c.87-1.68,2.11-2.99,3.72-3.94,1.61-.95,3.54-1.42,5.78-1.42,2.55,0,4.65.61,6.31,1.83,1.66,1.22,2.73,2.9,3.21,5.04h-5.04c-.3-.85-.83-1.51-1.59-1.98-.76-.47-1.73-.7-2.93-.7-1.32,0-2.43.29-3.35.86-.92.58-1.61,1.38-2.08,2.43-.47,1.04-.7,2.27-.7,3.69s.24,2.69.71,3.7c.47,1.01,1.15,1.78,2.03,2.29s1.94.78,3.17.78c1.74,0,3.06-.45,3.96-1.36.9-.91,1.45-2.05,1.66-3.43h-4.98s0-3.4,0-3.4h9.53s0,11.87,0,11.87h-4.19s-.36-2.46-.36-2.46c-.43.61-.93,1.12-1.5,1.55-.58.42-1.24.74-2,.95s-1.63.32-2.63.32Z"/>
          <path class="cls-1" d="M85.15,42.35v-15.3s4.05,0,4.05,0l.39,2.79c.4-.65.88-1.2,1.43-1.67.55-.46,1.17-.83,1.88-1.09.71-.26,1.5-.39,2.37-.39v4.83s-1.55,0-1.55,0c-.61,0-1.15.07-1.64.2-.49.13-.91.35-1.27.65-.36.3-.64.71-.82,1.23-.18.52-.27,1.16-.27,1.93v6.83s-4.56,0-4.56,0Z"/>
          <path class="cls-1" d="M103.61,42.73c-1.58,0-2.96-.33-4.14-.99-1.18-.66-2.11-1.58-2.77-2.76-.67-1.18-1-2.54-1-4.08s.33-2.98.97-4.22c.65-1.23,1.57-2.2,2.78-2.91,1.2-.71,2.6-1.06,4.17-1.06s2.88.33,4.04.99c1.15.66,2.05,1.56,2.7,2.72.65,1.15.97,2.48.97,3.98,0,.2,0,.43-.02.68-.01.25-.03.51-.05.77h-12.35s0-2.68,0-2.68h7.83c-.06-.82-.37-1.5-.94-2.03-.57-.53-1.28-.79-2.15-.79-.67,0-1.26.15-1.79.45-.53.3-.94.76-1.23,1.38-.29.62-.44,1.39-.44,2.32v.88c0,.71.13,1.34.39,1.9.26.56.66.99,1.18,1.29.53.3,1.12.46,1.79.46s1.25-.14,1.68-.41c.43-.27.77-.61,1.02-1.02h4.64c-.28.93-.77,1.79-1.46,2.58-.69.79-1.52,1.41-2.51,1.86-.98.45-2.09.68-3.32.68Z"/>
          <path class="cls-1" d="M120.92,42.74c-1.58,0-2.96-.33-4.14-.99-1.18-.66-2.11-1.58-2.77-2.76-.67-1.18-1-2.54-1-4.08s.33-2.98.97-4.22c.65-1.23,1.57-2.2,2.78-2.91,1.2-.71,2.6-1.06,4.17-1.06s2.88.33,4.04.99c1.15.66,2.05,1.56,2.7,2.72.65,1.15.97,2.48.97,3.98,0,.2,0,.43-.02.68-.01.25-.03.51-.05.77h-12.35s0-2.68,0-2.68h7.83c-.06-.82-.37-1.5-.94-2.03-.57-.53-1.28-.79-2.15-.79-.67,0-1.26.15-1.79.45-.53.3-.94.76-1.23,1.38-.29.62-.44,1.39-.44,2.32v.88c0,.71.13,1.34.39,1.9.26.56.66.99,1.18,1.29.53.3,1.12.46,1.79.46s1.25-.14,1.68-.41c.43-.27.77-.61,1.02-1.02h4.64c-.28.93-.77,1.79-1.46,2.58-.69.79-1.52,1.41-2.51,1.86-.98.45-2.09.68-3.32.68Z"/>
          <path class="cls-1" d="M130.83,42.38v-15.3s3.99,0,3.99,0l.33,2.43c.45-.83,1.1-1.5,1.96-2.02.86-.52,1.9-.77,3.11-.77,1.27,0,2.35.27,3.22.82.87.55,1.53,1.33,1.99,2.35.45,1.02.68,2.28.68,3.78v8.71s-4.56,0-4.56,0v-8.32c0-1.13-.22-2-.69-2.61-.46-.61-1.2-.91-2.21-.91-.65,0-1.21.15-1.7.44-.49.29-.87.71-1.14,1.24-.27.54-.41,1.2-.41,1.99v8.16s-4.56,0-4.56,0Z"/>
          <path class="cls-1" d="M151.14,42.4l-4.51-15.3h4.49s2.84,12.24,2.84,12.24h-.82s3.26-12.23,3.26-12.23h5.01s3.27,12.21,3.27,12.21l-.85.03,2.86-12.23h4.46s-4.47,15.3-4.47,15.3h-4.73s-3.54-12.54-3.54-12.54h.97s-3.5,12.53-3.5,12.53h-4.73Z"/>
          <path class="cls-1" d="M176.87,42.78c-1.25,0-2.3-.21-3.14-.62-.84-.42-1.46-.97-1.85-1.66-.39-.69-.59-1.46-.59-2.31s.23-1.69.68-2.41c.46-.72,1.16-1.28,2.13-1.68.96-.4,2.2-.61,3.72-.6h3.67c0-.68-.09-1.26-.26-1.71-.17-.46-.45-.79-.83-1.02-.38-.22-.91-.33-1.58-.33-.71,0-1.31.15-1.79.44-.49.29-.79.74-.91,1.35h-4.37c.1-1.1.46-2.05,1.06-2.86.61-.81,1.43-1.45,2.47-1.91,1.04-.46,2.23-.7,3.57-.7,1.46,0,2.72.23,3.79.7,1.07.47,1.91,1.16,2.5,2.08.6.92.89,2.06.89,3.41v9.47s-3.8,0-3.8,0l-.54-2.22c-.22.38-.49.73-.79,1.05-.3.31-.66.59-1.06.82-.41.23-.85.41-1.34.53-.49.12-1.03.18-1.64.18ZM178.03,39.32c.47,0,.88-.08,1.24-.24.36-.16.68-.38.96-.67.27-.28.5-.61.67-.99.17-.37.3-.79.38-1.26h-2.94c-.51,0-.93.06-1.27.19-.34.13-.59.32-.74.58-.15.25-.23.53-.23.83,0,.34.09.63.26.85.17.22.4.39.7.52.29.12.62.18.99.18Z"/>
          <path class="cls-1" d="M189.87,49.1l3.71-8.37h-.91s-6.18-13.6-6.18-13.6h4.95s4.21,9.29,4.21,9.29l3.53-9.28h4.86s-9.33,21.97-9.33,21.97h-4.83Z"/>
        </g>
      </g>
      <path class="cls-1" d="M42.45,6.8c-3.05-3.23-7.03-5.41-11.49-6.23-5.55-1.03-11.18.17-15.83,3.37-4.66,3.2-7.79,8.02-8.82,13.58-.18.97.27,1.95,1.13,2.44.91.52,1.86,1.06,2.8,1.6,1.46.83,3.27-.11,3.47-1.78.06-.46.14-.93.24-1.39.72-3.21,2.62-6.06,5.29-7.98,1.05-.75,2.18-1.34,3.36-1.76.02,0,.04-.02.06-.03,1.12-.49,2.34-.87,3.11-1.09h0s1.17-.35,1.17-.35c0,0,0,0,0,0l.47-.14h0s1.53-.46,1.53-.46c1.49-.45,3.09.28,3.72,1.69,0,0,.12.28.24.56.13.29.44.46.76.41l8.48-1.49c.44-.08.62-.62.31-.94Z"/>
    </g>
  </g>
</svg>